<svg xmlns="http://www.w3.org/2000/svg" xml:space="preserve" width="2000" height="1500" data-id="lg_4xrumsXopgfIMsAm4g" data-version="1"><path fill="#fff" stroke="transparent" d="M0 0h2000v1500H0z"/><g data-padding="20"><g transform="translate(-1130.56 -857.66)scale(2.09033)"><path fill="#1f299c" stroke="transparent" stroke-width="1.68" d="M812.38 813.91q-19.3 0-29.87-11.88-10.58-11.87-10.58-33.59 0-22.29 10.74-34.45t30.6-12.16q6.4 0 12.8 1.38 6.41 1.37 10.05 3.24l-4.13 11.43q-4.46-1.79-9.73-2.96-5.26-1.18-9.32-1.18-27.07 0-27.07 34.53 0 16.38 6.61 25.13 6.6 8.75 19.57 8.75 11.11 0 22.78-4.78v11.92q-8.92 4.62-22.45 4.62m108.14-1.62h-9.97l-2.67-12.65h-.65q-6.65 8.35-13.25 11.31-6.61 2.96-16.5 2.96-13.21 0-20.71-6.81t-7.5-19.37q0-26.91 43.05-28.21l15.07-.49v-5.51q0-10.45-4.5-15.44-4.5-4.98-14.38-4.98-11.11 0-25.13 6.8l-4.14-10.29q6.57-3.57 14.39-5.59 7.82-2.03 15.69-2.03 15.88 0 23.54 7.05t7.66 22.62Zm-40.36-9.49q12.56 0 19.73-6.89 7.18-6.89 7.18-19.29v-8.02l-13.46.56q-16.05.57-23.14 4.99t-7.09 13.74q0 7.29 4.42 11.1 4.41 3.81 12.36 3.81m109.41 11.12q-8.67 0-15.85-3.2-7.17-3.21-12.03-9.85h-.97q.97 7.78.97 14.75v36.55h-13.46V723.46h10.95l1.86 12.16h.65q5.19-7.3 12.07-10.54 6.89-3.24 15.81-3.24 17.67 0 27.28 12.08 9.6 12.07 9.6 33.88 0 21.88-9.77 34-9.76 12.12-27.11 12.12m-1.94-80.65q-13.62 0-19.7 7.54-6.08 7.53-6.24 23.99v3q0 18.72 6.24 26.79 6.24 8.06 20.02 8.06 11.51 0 18.03-9.32 6.53-9.32 6.53-25.7 0-16.61-6.53-25.49-6.52-8.87-18.35-8.87m119.63 54.78q0 12.4-9.24 19.13t-25.94 6.73q-17.67 0-27.55-5.6v-12.48q6.4 3.24 13.73 5.11 7.34 1.86 14.15 1.86 10.54 0 16.21-3.36 5.67-3.37 5.67-10.25 0-5.19-4.5-8.88-4.49-3.69-17.54-8.71-12.4-4.62-17.63-8.07-5.23-3.44-7.78-7.82-2.56-4.38-2.56-10.46 0-10.86 8.84-17.14 8.83-6.28 24.23-6.28 14.35 0 28.05 5.83l-4.78 10.95q-13.38-5.51-24.24-5.51-9.56 0-14.43 2.99-4.86 3-4.86 8.27 0 3.57 1.82 6.08 1.83 2.51 5.88 4.78t15.56 6.57q15.81 5.75 21.36 11.59t5.55 14.67m20.91-64.6h13.62v57.63q0 10.86 4.95 16.21 4.94 5.35 15.48 5.35 13.94 0 20.38-7.62 6.45-7.62 6.45-24.88v-46.69h13.45v88.84h-11.1l-1.95-11.92h-.73q-4.13 6.57-11.47 10.05-7.33 3.49-16.74 3.49-16.21 0-24.27-7.7-8.07-7.7-8.07-24.64Zm116.32-37.3v126.13h-13.46V686.15Zm66.06 127.76q-19.7 0-31.09-12t-11.39-33.31q0-21.48 10.58-34.13 10.58-12.64 28.41-12.64 16.7 0 26.43 10.98 9.72 10.98 9.72 28.98v8.51h-61.19q.4 15.64 7.9 23.75 7.5 8.1 21.11 8.1 14.35 0 28.37-5.99v11.99q-7.13 3.08-13.49 4.42-6.37 1.34-15.36 1.34m-3.65-80.81q-10.7 0-17.06 6.97-6.37 6.97-7.5 19.29h46.44q0-12.73-5.67-19.5-5.67-6.76-16.21-6.76"/><rect width="620" height="187.58" x="271.789" y="348.099" fill="none" rx="0" ry="0" transform="translate(475.77 317.46)"/><path fill="#1f299c" d="m755.912 830.618-1.41-58.973-.264-5.874-1.08-59.458c-.491-22.756-19.136-40.813-41.892-40.322s-40.814 19.137-40.322 41.893l1.245 59.215.264 5.874 1.245 59.216c.491 22.756 19.136 40.813 41.893 40.322 22.425-.006 40.647-18.894 40.321-41.893m-5.097-65.046-75.038 1.484-1.167-58.807c-.515-20.636 15.897-37.912 36.776-38.26a37.34 37.34 0 0 1 38.261 36.776Z"/></g><path fill="transparent" stroke="transparent" stroke-width="2.152" d="M250 522.956h1500v454.088H250z"/></g></svg>